<svg class="diagram-root" style="background: #f5f6f6" xmlns="http://www.w3.org/2000/svg" xmlns:xlink="http://www.w3.org/1999/xlink"><style>.diagram-root { font-family: "Helvetica Neue", sans-serif; font-size: 12px; } .t { overflow: visible; } .t-bg { y: 40; fill: #fff;   } .th { fill: #005aa0;   } .tht { fill: #fff; font-size: 14px;  } .tf { fill: #323c46; overflow: visible; } .tf.pk { fill: #005aa0; font-weight: bold; } .tf.fk { font-weight: bold; } .ty { fill: #adb1b5; font-weight: normal; text-anchor: end; } .r { fill: transparent; stroke: #c3c3c3; stroke-width: 1; } .l { stroke: 1; } .i { fill: #c2c7ce; stroke: #c2c7ce; } .i.ix { fill: #afb3b6; stroke: #000; } .fa { fill: transparent; overflow: visible; } .fa .bg.hover { fill: #f7f7f7; } .c { cy: 12; r: 4; stroke: #d2d2dc; fill: #d2d2dc; } .hr { fill: transparent; stroke: #323c46; stroke-opacity: 0.035; stroke-width: 13; } .dc { stroke: #fa5a3c; fill: #fa5a3c; } .x { stroke: white; stroke-width: 1; } .hl .th { fill: #1b9bff; } .hl .tht {  } .fhl .bg { fill: #e7f4ff; } .fhls .bg {  } .r.hl { stroke: #1b9bff; } .dim { opacity: 0.25; }</style><g class="drawing-wrapper" transform="translate(154.21888888888913, 128.8877777777779) scale(1,1)"><g class="rs"><path d="M 207.77 -6.8799999999999955 m -1, 0 a 1,1 0 1,0 2,0 a 1,1 0 1,0 -2,0 M 207.77 -6.8799999999999955 m -0.5, 0 a 0.5,0.5 0 1,0 1,0 a 0.5,0.5 0 1,0 -1,0  M207.77 -6.8799999999999955 L207.77 -6.8799999999999955 195.77 -6.8799999999999955 M 207.77 -0.8799999999999955 m -1, 0 a 1,1 0 1,0 2,0 a 1,1 0 1,0 -2,0 M 207.77 -0.8799999999999955 m -0.5, 0 a 0.5,0.5 0 1,0 1,0 a 0.5,0.5 0 1,0 -1,0  M207.77 -0.8799999999999955 L207.77 -0.8799999999999955 200.77 -6.8799999999999955 207.77 -12.879999999999995 M 207.77 -12.879999999999995 m -1, 0 a 1,1 0 1,0 2,0 a 1,1 0 1,0 -2,0 M 207.77 -12.879999999999995 m -0.5, 0 a 0.5,0.5 0 1,0 1,0 a 0.5,0.5 0 1,0 -1,0  M195.77 -6.8799999999999955 Q 159.29 -6.8799999999999955, 122.8 100.06 T 49.83 207 M 37.83 207 m -1, 0 a 1,1 0 1,0 2,0 a 1,1 0 1,0 -2,0 M 37.83 207 m -0.5, 0 a 0.5,0.5 0 1,0 1,0 a 0.5,0.5 0 1,0 -1,0  M37.83 207 L37.83 207 49.83 207 M43.83 213 L43.83 213 43.83 201" id="h3623009751" class="r"></path><path d="M 407.18 268.12 m -1, 0 a 1,1 0 1,0 2,0 a 1,1 0 1,0 -2,0 M 407.18 268.12 m -0.5, 0 a 0.5,0.5 0 1,0 1,0 a 0.5,0.5 0 1,0 -1,0  M407.18 268.12 L407.18 268.12 419.18 268.12 M 407.18 274.12 m -1, 0 a 1,1 0 1,0 2,0 a 1,1 0 1,0 -2,0 M 407.18 274.12 m -0.5, 0 a 0.5,0.5 0 1,0 1,0 a 0.5,0.5 0 1,0 -1,0  M407.18 274.12 L407.18 274.12 414.18 268.12 407.18 262.12 M 407.18 262.12 m -1, 0 a 1,1 0 1,0 2,0 a 1,1 0 1,0 -2,0 M 407.18 262.12 m -0.5, 0 a 0.5,0.5 0 1,0 1,0 a 0.5,0.5 0 1,0 -1,0  M419.18 268.12 Q 453.61 268.12, 488.03 113.12 T 556.88 -41.89 M 568.88 -41.89 m -1, 0 a 1,1 0 1,0 2,0 a 1,1 0 1,0 -2,0 M 568.88 -41.89 m -0.5, 0 a 0.5,0.5 0 1,0 1,0 a 0.5,0.5 0 1,0 -1,0  M568.88 -41.89 L568.88 -41.89 556.88 -41.89 M562.88 -35.89 L562.88 -35.89 562.88 -47.89" id="h304082562" class="r"></path><path d="M 407.18 293.12 m -1, 0 a 1,1 0 1,0 2,0 a 1,1 0 1,0 -2,0 M 407.18 293.12 m -0.5, 0 a 0.5,0.5 0 1,0 1,0 a 0.5,0.5 0 1,0 -1,0  M407.18 293.12 L407.18 293.12 419.18 293.12 M 407.18 299.12 m -1, 0 a 1,1 0 1,0 2,0 a 1,1 0 1,0 -2,0 M 407.18 299.12 m -0.5, 0 a 0.5,0.5 0 1,0 1,0 a 0.5,0.5 0 1,0 -1,0  M407.18 299.12 L407.18 299.12 414.18 293.12 407.18 287.12 M 407.18 287.12 m -1, 0 a 1,1 0 1,0 2,0 a 1,1 0 1,0 -2,0 M 407.18 287.12 m -0.5, 0 a 0.5,0.5 0 1,0 1,0 a 0.5,0.5 0 1,0 -1,0  M419.18 293.12 Q 462.36 293.12, 505.53 397.28 T 591.88 501.44 M 603.88 501.44 m -1, 0 a 1,1 0 1,0 2,0 a 1,1 0 1,0 -2,0 M 603.88 501.44 m -0.5, 0 a 0.5,0.5 0 1,0 1,0 a 0.5,0.5 0 1,0 -1,0  M603.88 501.44 L603.88 501.44 591.88 501.44 M597.88 507.44 L597.88 507.44 597.88 495.44" id="h1054157934" class="r"></path></g><g class="hrs"></g><g class="ts"><svg width="199.41" height="400" x="207.77" y="-88.88" id="h3257514455" class="t"><rect height="40" width="199.41" class="th"></rect><text x="13" y="25" class="tht">campaign</text><rect height="360" width="199.41" class="t-bg" y="40"></rect><text x="13" y="61" class="tf pk">cf_id<tspan x="186.41" class="ty">int</tspan></text><path d="M7,14A2,2 0 0,1 5,12A2,2 0 0,1 7,10A2,2 0 0,1 9,12A2,2 0 0,1 7,14M12.65,10C11.83,7.67 9.61,6 7, 6A6, 6 0 0, 0 1, 12A6, 6 0 0, 0 7, 18C9.61, 18 11.83, 16.33 12.65, 14H17V18H21V14H23V10H12.65Z" class="i pk" transform="translate(153.736171875, 48) scale(0.65)"></path><text x="13" y="86" class="tf fk">contact-id<tspan x="186.41" class="ty">int</tspan></text><text x="13" y="111" class="tf">company_name<tspan x="186.41" class="ty">varchar(255)</tspan></text><text x="13" y="136" class="tf">description<tspan x="186.41" class="ty">varchar(255)</tspan></text><text x="13" y="161" class="tf">goal<tspan x="186.41" class="ty">varchar(30)</tspan></text><text x="13" y="186" class="tf">pledged<tspan x="186.41" class="ty">varchar(30)</tspan></text><text x="13" y="211" class="tf">outcome<tspan x="186.41" class="ty">varchar(10)</tspan></text><text x="13" y="236" class="tf">backers_count<tspan x="186.41" class="ty">int</tspan></text><text x="13" y="261" class="tf">country<tspan x="186.41" class="ty">varchar(5)</tspan></text><text x="13" y="286" class="tf">currency<tspan x="186.41" class="ty">varchar(5)</tspan></text><text x="13" y="311" class="tf">launched_date<tspan x="186.41" class="ty">date</tspan></text><text x="13" y="336" class="tf">end_date<tspan x="186.41" class="ty">date</tspan></text><text x="13" y="361" class="tf fk">category_id<tspan x="186.41" class="ty">varchar(5)</tspan></text><text x="13" y="386" class="tf fk">subcategory_id<tspan x="186.41" class="ty">varchar(10)</tspan></text></svg><svg width="182.72" height="100" x="568.88" y="-98.89" id="h2794354149" class="t"><rect height="40" width="182.72" class="th"></rect><text x="13" y="25" class="tht">category</text><rect height="60" width="182.72" class="t-bg" y="40"></rect><text x="13" y="61" class="tf pk">category_id<tspan x="169.72" class="ty">varchar(5)</tspan></text><path d="M7,14A2,2 0 0,1 5,12A2,2 0 0,1 7,10A2,2 0 0,1 9,12A2,2 0 0,1 7,14M12.65,10C11.83,7.67 9.61,6 7, 6A6, 6 0 0, 0 1, 12A6, 6 0 0, 0 7, 18C9.61, 18 11.83, 16.33 12.65, 14H17V18H21V14H23V10H12.65Z" class="i pk" transform="translate(95.0403125, 48) scale(0.65)"></path><text x="13" y="86" class="tf">category<tspan x="169.72" class="ty">varchar(20)</tspan></text></svg><svg width="208.74" height="100" x="603.88" y="444.44" id="h1568904301" class="t"><rect height="40" width="208.74" class="th"></rect><text x="13" y="25" class="tht">subcategory</text><rect height="60" width="208.74" class="t-bg" y="40"></rect><text x="13" y="61" class="tf pk">subcategory_id<tspan x="195.74" class="ty">varchar(10)</tspan></text><path d="M7,14A2,2 0 0,1 5,12A2,2 0 0,1 7,10A2,2 0 0,1 9,12A2,2 0 0,1 7,14M12.65,10C11.83,7.67 9.61,6 7, 6A6, 6 0 0, 0 1, 12A6, 6 0 0, 0 7, 18C9.61, 18 11.83, 16.33 12.65, 14H17V18H21V14H23V10H12.65Z" class="i pk" transform="translate(114.38648437500001, 48) scale(0.65)"></path><text x="13" y="86" class="tf">subcategory<tspan x="195.74" class="ty">varchar(30)</tspan></text></svg><svg width="170.05" height="150" x="-132.22" y="150" id="h4144639668" class="t"><rect height="40" width="170.05" class="th"></rect><text x="13" y="25" class="tht">contacts</text><rect height="110" width="170.05" class="t-bg" y="40"></rect><text x="13" y="61" class="tf pk">contact_id<tspan x="157.05" class="ty">int</tspan></text><path d="M7,14A2,2 0 0,1 5,12A2,2 0 0,1 7,10A2,2 0 0,1 9,12A2,2 0 0,1 7,14M12.65,10C11.83,7.67 9.61,6 7, 6A6, 6 0 0, 0 1, 12A6, 6 0 0, 0 7, 18C9.61, 18 11.83, 16.33 12.65, 14H17V18H21V14H23V10H12.65Z" class="i pk" transform="translate(124.37617187500001, 48) scale(0.65)"></path><text x="13" y="86" class="tf">first_name<tspan x="157.05" class="ty">varchar(255)</tspan></text><text x="13" y="111" class="tf">last_name<tspan x="157.05" class="ty">varchar(255)</tspan></text><text x="13" y="136" class="tf">email<tspan x="157.05" class="ty">varchar(255)</tspan></text></svg></g></g><text class="qdbd-link" x="10" y="20">www.quickdatabasediagrams.com</text></svg>